<svg xmlns="http://www.w3.org/2000/svg" width="341.333" height="341.333" version="1.0" viewBox="0 0 256 256" fill="currentColor"><path d="M171 14.6c-1.9 1.4-6.6 3.4-10.4 4.6-9 2.7-21.6 2.1-37.6-1.8-15.4-3.7-30.6-4-39.2-.5-8.1 3.2-15.8 10.4-19.4 18.3-7 15.5-1 34.3 13.6 42.2 6.3 3.4 7.7 2.6 2.7-1.5-9.9-8.2-5-22.4 9.1-26.5 4.7-1.4 7.5-1.5 16.7-.8 6 .5 16.3.9 22.8.9 6.4 0 11.7.1 11.7.1 0 .1-4 3.3-8.8 7.1-15.9 12.6-20.2 19.9-21 35.4l-.5 9.7-6.5 1.6c-16.3 4-24.2 14.3-23 29.9.7 8 3.1 12.9 6.1 12.5 1.7-.2 2.3-1.1 2.5-3.7.7-7.4 5.7-11.1 15.2-11.1h6.1l-.3 40.4-.3 40.5-3.5 3.6c-1.9 2-4.5 3.8-5.7 4.1-2 .5-2.3 1.3-2.3 5 0 2.4.2 4.4.4 4.4s3.5-1 7.2-2.1c14-4.3 26.3-12.1 32.2-20.3 6.9-9.5 6.6-5.9 7.2-82.1l.5-69 3.1-6.5c3.8-8 10-14.9 21.5-24.1C176 21 180 17.4 180 17c0-.7-2.7-3.3-4.5-4.2-.5-.3-2.6.5-4.5 1.8z"/><path d="M188 25.1C169.8 39 164.8 45 160.2 58.8l-2.6 7.7-.6 64c-.5 48.1-1 65-1.9 68-4.5 13.9-14.5 25.7-27.1 31.8-16.6 8.1-33.8 6.6-46.7-3.9-3.6-3-10.3-11.2-10.3-12.7 0-.3 1.8-.1 4.1.4 11.5 2.6 21.9-6 21.9-18.1 0-17-20.5-25.3-33.7-13.7-11.6 10.2-11 29.3 1.3 42.6 10.4 11.3 24.4 16.5 43.9 16.4 38.8-.2 70.1-22.9 79.7-57.9 2-7.6 2.2-10.6 2.9-70.4.8-71.2.7-70.5 8.6-87.8 2-4.2 2.2-5.6 1.3-6.7-.7-.8-1.5-1.5-1.9-1.4-.3 0-5.3 3.6-11.1 8z"/><style>@media (prefers-color-scheme: dark),.dark-theme {:root {fill: white;}}</style></svg>